<?xml version="1.0" encoding="UTF-8"?>
<svg xmlns="http://www.w3.org/2000/svg" xmlns:xlink="http://www.w3.org/1999/xlink" width="335.533997pt" height="296.25pt" viewBox="0 0 335.533997 296.25" version="1.1">
<defs>
<g>
<symbol overflow="visible" id="glyph0-0">
<path style="stroke:none;" d="M 0.40625 1.421875 L 0.40625 -5.640625 L 4.40625 -5.640625 L 4.40625 1.421875 Z M 0.84375 0.96875 L 3.953125 0.96875 L 3.953125 -5.1875 L 0.84375 -5.1875 Z M 0.84375 0.96875 "/>
</symbol>
<symbol overflow="visible" id="glyph0-1">
<path style="stroke:none;" d="M 5.15625 -5.390625 L 5.15625 -4.546875 C 4.882812 -4.796875 4.597656 -4.984375 4.296875 -5.109375 C 4.003906 -5.234375 3.6875 -5.296875 3.34375 -5.296875 C 2.675781 -5.296875 2.164062 -5.085938 1.8125 -4.671875 C 1.457031 -4.265625 1.28125 -3.675781 1.28125 -2.90625 C 1.28125 -2.144531 1.457031 -1.554688 1.8125 -1.140625 C 2.164062 -0.734375 2.675781 -0.53125 3.34375 -0.53125 C 3.6875 -0.53125 4.003906 -0.59375 4.296875 -0.71875 C 4.597656 -0.84375 4.882812 -1.03125 5.15625 -1.28125 L 5.15625 -0.453125 C 4.875 -0.265625 4.578125 -0.125 4.265625 -0.03125 C 3.960938 0.0625 3.640625 0.109375 3.296875 0.109375 C 2.410156 0.109375 1.710938 -0.160156 1.203125 -0.703125 C 0.703125 -1.242188 0.453125 -1.976562 0.453125 -2.90625 C 0.453125 -3.84375 0.703125 -4.582031 1.203125 -5.125 C 1.710938 -5.664062 2.410156 -5.9375 3.296875 -5.9375 C 3.648438 -5.9375 3.976562 -5.890625 4.28125 -5.796875 C 4.59375 -5.703125 4.882812 -5.566406 5.15625 -5.390625 Z M 5.15625 -5.390625 "/>
</symbol>
<symbol overflow="visible" id="glyph0-2">
<path style="stroke:none;" d="M 2.75 -2.203125 C 2.164062 -2.203125 1.757812 -2.132812 1.53125 -2 C 1.3125 -1.863281 1.203125 -1.640625 1.203125 -1.328125 C 1.203125 -1.066406 1.285156 -0.859375 1.453125 -0.703125 C 1.617188 -0.554688 1.847656 -0.484375 2.140625 -0.484375 C 2.535156 -0.484375 2.851562 -0.625 3.09375 -0.90625 C 3.332031 -1.195312 3.453125 -1.578125 3.453125 -2.046875 L 3.453125 -2.203125 Z M 4.171875 -2.5 L 4.171875 0 L 3.453125 0 L 3.453125 -0.671875 C 3.296875 -0.398438 3.09375 -0.203125 2.84375 -0.078125 C 2.601562 0.046875 2.304688 0.109375 1.953125 0.109375 C 1.503906 0.109375 1.144531 -0.015625 0.875 -0.265625 C 0.613281 -0.515625 0.484375 -0.851562 0.484375 -1.28125 C 0.484375 -1.769531 0.644531 -2.140625 0.96875 -2.390625 C 1.300781 -2.640625 1.796875 -2.765625 2.453125 -2.765625 L 3.453125 -2.765625 L 3.453125 -2.828125 C 3.453125 -3.160156 3.34375 -3.414062 3.125 -3.59375 C 2.914062 -3.78125 2.613281 -3.875 2.21875 -3.875 C 1.96875 -3.875 1.722656 -3.84375 1.484375 -3.78125 C 1.242188 -3.71875 1.015625 -3.628906 0.796875 -3.515625 L 0.796875 -4.171875 C 1.066406 -4.273438 1.320312 -4.351562 1.5625 -4.40625 C 1.8125 -4.457031 2.054688 -4.484375 2.296875 -4.484375 C 2.921875 -4.484375 3.390625 -4.316406 3.703125 -3.984375 C 4.015625 -3.660156 4.171875 -3.164062 4.171875 -2.5 Z M 4.171875 -2.5 "/>
</symbol>
<symbol overflow="visible" id="glyph0-3">
<path style="stroke:none;" d="M 3.546875 -4.25 L 3.546875 -3.5625 C 3.335938 -3.664062 3.125 -3.742188 2.90625 -3.796875 C 2.6875 -3.847656 2.460938 -3.875 2.234375 -3.875 C 1.878906 -3.875 1.609375 -3.816406 1.421875 -3.703125 C 1.242188 -3.597656 1.15625 -3.4375 1.15625 -3.21875 C 1.15625 -3.050781 1.21875 -2.921875 1.34375 -2.828125 C 1.476562 -2.734375 1.738281 -2.644531 2.125 -2.5625 L 2.375 -2.5 C 2.882812 -2.394531 3.242188 -2.242188 3.453125 -2.046875 C 3.671875 -1.847656 3.78125 -1.566406 3.78125 -1.203125 C 3.78125 -0.796875 3.617188 -0.472656 3.296875 -0.234375 C 2.972656 -0.00390625 2.53125 0.109375 1.96875 0.109375 C 1.738281 0.109375 1.492188 0.0820312 1.234375 0.03125 C 0.984375 -0.0078125 0.71875 -0.0703125 0.4375 -0.15625 L 0.4375 -0.90625 C 0.695312 -0.769531 0.957031 -0.664062 1.21875 -0.59375 C 1.476562 -0.519531 1.734375 -0.484375 1.984375 -0.484375 C 2.328125 -0.484375 2.585938 -0.539062 2.765625 -0.65625 C 2.953125 -0.78125 3.046875 -0.945312 3.046875 -1.15625 C 3.046875 -1.351562 2.976562 -1.503906 2.84375 -1.609375 C 2.707031 -1.710938 2.421875 -1.8125 1.984375 -1.90625 L 1.734375 -1.96875 C 1.285156 -2.0625 0.960938 -2.203125 0.765625 -2.390625 C 0.566406 -2.585938 0.46875 -2.851562 0.46875 -3.1875 C 0.46875 -3.601562 0.613281 -3.921875 0.90625 -4.140625 C 1.195312 -4.367188 1.609375 -4.484375 2.140625 -4.484375 C 2.410156 -4.484375 2.660156 -4.460938 2.890625 -4.421875 C 3.128906 -4.378906 3.347656 -4.320312 3.546875 -4.25 Z M 3.546875 -4.25 "/>
</symbol>
<symbol overflow="visible" id="glyph0-4">
<path style="stroke:none;" d="M 4.5 -2.375 L 4.5 -2.015625 L 1.1875 -2.015625 C 1.21875 -1.523438 1.367188 -1.148438 1.640625 -0.890625 C 1.910156 -0.628906 2.28125 -0.5 2.75 -0.5 C 3.03125 -0.5 3.300781 -0.53125 3.5625 -0.59375 C 3.820312 -0.664062 4.078125 -0.769531 4.328125 -0.90625 L 4.328125 -0.21875 C 4.066406 -0.113281 3.800781 -0.0351562 3.53125 0.015625 C 3.257812 0.078125 2.988281 0.109375 2.71875 0.109375 C 2.019531 0.109375 1.460938 -0.09375 1.046875 -0.5 C 0.640625 -0.90625 0.4375 -1.453125 0.4375 -2.140625 C 0.4375 -2.859375 0.628906 -3.425781 1.015625 -3.84375 C 1.410156 -4.269531 1.9375 -4.484375 2.59375 -4.484375 C 3.175781 -4.484375 3.640625 -4.289062 3.984375 -3.90625 C 4.328125 -3.53125 4.5 -3.019531 4.5 -2.375 Z M 3.78125 -2.578125 C 3.769531 -2.972656 3.65625 -3.285156 3.4375 -3.515625 C 3.226562 -3.753906 2.945312 -3.875 2.59375 -3.875 C 2.195312 -3.875 1.875 -3.757812 1.625 -3.53125 C 1.382812 -3.300781 1.25 -2.984375 1.21875 -2.578125 Z M 3.78125 -2.578125 "/>
</symbol>
<symbol overflow="visible" id="glyph0-5">
<path style="stroke:none;" d=""/>
</symbol>
<symbol overflow="visible" id="glyph0-6">
<path style="stroke:none;" d="M 1 -0.671875 L 2.28125 -0.671875 L 2.28125 -5.109375 L 0.875 -4.828125 L 0.875 -5.546875 L 2.28125 -5.828125 L 3.0625 -5.828125 L 3.0625 -0.671875 L 4.359375 -0.671875 L 4.359375 0 L 1 0 Z M 1 -0.671875 "/>
</symbol>
<symbol overflow="visible" id="glyph0-7">
<path style="stroke:none;" d="M 0.9375 -1 L 1.765625 -1 L 1.765625 0 L 0.9375 0 Z M 0.9375 -4.140625 L 1.765625 -4.140625 L 1.765625 -3.140625 L 0.9375 -3.140625 Z M 0.9375 -4.140625 "/>
</symbol>
<symbol overflow="visible" id="glyph0-8">
<path style="stroke:none;" d="M 3.546875 -2.734375 C 3.722656 -2.679688 3.890625 -2.5625 4.046875 -2.375 C 4.203125 -2.1875 4.363281 -1.925781 4.53125 -1.59375 L 5.328125 0 L 4.484375 0 L 3.734375 -1.5 C 3.546875 -1.882812 3.359375 -2.140625 3.171875 -2.265625 C 2.992188 -2.398438 2.75 -2.46875 2.4375 -2.46875 L 1.578125 -2.46875 L 1.578125 0 L 0.78125 0 L 0.78125 -5.828125 L 2.5625 -5.828125 C 3.226562 -5.828125 3.722656 -5.6875 4.046875 -5.40625 C 4.378906 -5.132812 4.546875 -4.71875 4.546875 -4.15625 C 4.546875 -3.789062 4.460938 -3.484375 4.296875 -3.234375 C 4.128906 -2.992188 3.878906 -2.828125 3.546875 -2.734375 Z M 1.578125 -5.1875 L 1.578125 -3.109375 L 2.5625 -3.109375 C 2.945312 -3.109375 3.234375 -3.195312 3.421875 -3.375 C 3.617188 -3.550781 3.71875 -3.8125 3.71875 -4.15625 C 3.71875 -4.5 3.617188 -4.753906 3.421875 -4.921875 C 3.234375 -5.097656 2.945312 -5.1875 2.5625 -5.1875 Z M 1.578125 -5.1875 "/>
</symbol>
<symbol overflow="visible" id="glyph0-9">
<path style="stroke:none;" d="M 0.734375 -6.078125 L 1.453125 -6.078125 L 1.453125 -2.484375 L 3.59375 -4.375 L 4.515625 -4.375 L 2.1875 -2.328125 L 4.609375 0 L 3.671875 0 L 1.453125 -2.140625 L 1.453125 0 L 0.734375 0 Z M 0.734375 -6.078125 "/>
</symbol>
<symbol overflow="visible" id="glyph0-10">
<path style="stroke:none;" d="M 1.46875 -5.625 L 1.46875 -4.375 L 2.953125 -4.375 L 2.953125 -3.8125 L 1.46875 -3.8125 L 1.46875 -1.4375 C 1.46875 -1.082031 1.515625 -0.851562 1.609375 -0.75 C 1.710938 -0.65625 1.910156 -0.609375 2.203125 -0.609375 L 2.953125 -0.609375 L 2.953125 0 L 2.203125 0 C 1.648438 0 1.269531 -0.101562 1.0625 -0.3125 C 0.851562 -0.519531 0.75 -0.894531 0.75 -1.4375 L 0.75 -3.8125 L 0.21875 -3.8125 L 0.21875 -4.375 L 0.75 -4.375 L 0.75 -5.625 Z M 1.46875 -5.625 "/>
</symbol>
<symbol overflow="visible" id="glyph0-11">
<path style="stroke:none;" d="M 2.453125 -3.875 C 2.066406 -3.875 1.757812 -3.722656 1.53125 -3.421875 C 1.3125 -3.117188 1.203125 -2.707031 1.203125 -2.1875 C 1.203125 -1.664062 1.3125 -1.253906 1.53125 -0.953125 C 1.757812 -0.648438 2.066406 -0.5 2.453125 -0.5 C 2.835938 -0.5 3.140625 -0.648438 3.359375 -0.953125 C 3.585938 -1.253906 3.703125 -1.664062 3.703125 -2.1875 C 3.703125 -2.707031 3.585938 -3.117188 3.359375 -3.421875 C 3.140625 -3.722656 2.835938 -3.875 2.453125 -3.875 Z M 2.453125 -4.484375 C 3.078125 -4.484375 3.566406 -4.28125 3.921875 -3.875 C 4.273438 -3.46875 4.453125 -2.90625 4.453125 -2.1875 C 4.453125 -1.46875 4.273438 -0.90625 3.921875 -0.5 C 3.566406 -0.09375 3.078125 0.109375 2.453125 0.109375 C 1.828125 0.109375 1.332031 -0.09375 0.96875 -0.5 C 0.613281 -0.90625 0.4375 -1.46875 0.4375 -2.1875 C 0.4375 -2.90625 0.613281 -3.46875 0.96875 -3.875 C 1.332031 -4.28125 1.828125 -4.484375 2.453125 -4.484375 Z M 2.453125 -4.484375 "/>
</symbol>
<symbol overflow="visible" id="glyph0-12">
<path style="stroke:none;" d="M 1.453125 -0.65625 L 1.453125 1.671875 L 0.734375 1.671875 L 0.734375 -4.375 L 1.453125 -4.375 L 1.453125 -3.71875 C 1.597656 -3.976562 1.785156 -4.171875 2.015625 -4.296875 C 2.253906 -4.421875 2.53125 -4.484375 2.84375 -4.484375 C 3.375 -4.484375 3.804688 -4.269531 4.140625 -3.84375 C 4.472656 -3.425781 4.640625 -2.875 4.640625 -2.1875 C 4.640625 -1.5 4.472656 -0.941406 4.140625 -0.515625 C 3.804688 -0.0976562 3.375 0.109375 2.84375 0.109375 C 2.53125 0.109375 2.253906 0.046875 2.015625 -0.078125 C 1.785156 -0.203125 1.597656 -0.394531 1.453125 -0.65625 Z M 3.890625 -2.1875 C 3.890625 -2.71875 3.78125 -3.128906 3.5625 -3.421875 C 3.351562 -3.722656 3.054688 -3.875 2.671875 -3.875 C 2.296875 -3.875 2 -3.722656 1.78125 -3.421875 C 1.5625 -3.128906 1.453125 -2.71875 1.453125 -2.1875 C 1.453125 -1.65625 1.5625 -1.238281 1.78125 -0.9375 C 2 -0.632812 2.296875 -0.484375 2.671875 -0.484375 C 3.054688 -0.484375 3.351562 -0.632812 3.5625 -0.9375 C 3.78125 -1.238281 3.890625 -1.65625 3.890625 -2.1875 Z M 3.890625 -2.1875 "/>
</symbol>
<symbol overflow="visible" id="glyph0-13">
<path style="stroke:none;" d="M 2.578125 0.40625 C 2.367188 0.925781 2.164062 1.265625 1.96875 1.421875 C 1.78125 1.585938 1.523438 1.671875 1.203125 1.671875 L 0.640625 1.671875 L 0.640625 1.0625 L 1.0625 1.0625 C 1.257812 1.0625 1.410156 1.015625 1.515625 0.921875 C 1.628906 0.828125 1.75 0.609375 1.875 0.265625 L 2.015625 -0.078125 L 0.234375 -4.375 L 1 -4.375 L 2.375 -0.953125 L 3.734375 -4.375 L 4.5 -4.375 Z M 2.578125 0.40625 "/>
</symbol>
<symbol overflow="visible" id="glyph0-14">
<path style="stroke:none;" d="M 4.390625 -2.640625 L 4.390625 0 L 3.671875 0 L 3.671875 -2.625 C 3.671875 -3.03125 3.585938 -3.335938 3.421875 -3.546875 C 3.265625 -3.753906 3.023438 -3.859375 2.703125 -3.859375 C 2.316406 -3.859375 2.007812 -3.734375 1.78125 -3.484375 C 1.5625 -3.234375 1.453125 -2.894531 1.453125 -2.46875 L 1.453125 0 L 0.734375 0 L 0.734375 -4.375 L 1.453125 -4.375 L 1.453125 -3.703125 C 1.617188 -3.960938 1.816406 -4.15625 2.046875 -4.28125 C 2.285156 -4.414062 2.554688 -4.484375 2.859375 -4.484375 C 3.367188 -4.484375 3.75 -4.328125 4 -4.015625 C 4.257812 -3.703125 4.390625 -3.242188 4.390625 -2.640625 Z M 4.390625 -2.640625 "/>
</symbol>
<symbol overflow="visible" id="glyph0-15">
<path style="stroke:none;" d="M 0.75 -4.375 L 1.46875 -4.375 L 1.46875 0 L 0.75 0 Z M 0.75 -6.078125 L 1.46875 -6.078125 L 1.46875 -5.171875 L 0.75 -5.171875 Z M 0.75 -6.078125 "/>
</symbol>
<symbol overflow="visible" id="glyph0-16">
<path style="stroke:none;" d="M 3.640625 -2.234375 C 3.640625 -2.753906 3.53125 -3.15625 3.3125 -3.4375 C 3.09375 -3.726562 2.789062 -3.875 2.40625 -3.875 C 2.019531 -3.875 1.71875 -3.726562 1.5 -3.4375 C 1.289062 -3.15625 1.1875 -2.753906 1.1875 -2.234375 C 1.1875 -1.722656 1.289062 -1.320312 1.5 -1.03125 C 1.71875 -0.75 2.019531 -0.609375 2.40625 -0.609375 C 2.789062 -0.609375 3.09375 -0.75 3.3125 -1.03125 C 3.53125 -1.320312 3.640625 -1.722656 3.640625 -2.234375 Z M 4.359375 -0.546875 C 4.359375 0.203125 4.191406 0.757812 3.859375 1.125 C 3.523438 1.488281 3.019531 1.671875 2.34375 1.671875 C 2.082031 1.671875 1.835938 1.648438 1.609375 1.609375 C 1.390625 1.566406 1.175781 1.507812 0.96875 1.4375 L 0.96875 0.734375 C 1.175781 0.847656 1.382812 0.929688 1.59375 0.984375 C 1.800781 1.046875 2.007812 1.078125 2.21875 1.078125 C 2.695312 1.078125 3.050781 0.953125 3.28125 0.703125 C 3.519531 0.453125 3.640625 0.078125 3.640625 -0.421875 L 3.640625 -0.765625 C 3.484375 -0.515625 3.289062 -0.320312 3.0625 -0.1875 C 2.832031 -0.0625 2.554688 0 2.234375 0 C 1.691406 0 1.253906 -0.203125 0.921875 -0.609375 C 0.597656 -1.023438 0.4375 -1.566406 0.4375 -2.234375 C 0.4375 -2.910156 0.597656 -3.453125 0.921875 -3.859375 C 1.253906 -4.273438 1.691406 -4.484375 2.234375 -4.484375 C 2.554688 -4.484375 2.832031 -4.414062 3.0625 -4.28125 C 3.289062 -4.15625 3.484375 -3.96875 3.640625 -3.71875 L 3.640625 -4.375 L 4.359375 -4.375 Z M 4.359375 -0.546875 "/>
</symbol>
<symbol overflow="visible" id="glyph0-17">
<path style="stroke:none;" d="M 2.484375 -6.078125 C 2.128906 -5.472656 1.867188 -4.878906 1.703125 -4.296875 C 1.535156 -3.710938 1.453125 -3.117188 1.453125 -2.515625 C 1.453125 -1.910156 1.535156 -1.3125 1.703125 -0.71875 C 1.878906 -0.132812 2.140625 0.457031 2.484375 1.0625 L 1.859375 1.0625 C 1.460938 0.445312 1.164062 -0.15625 0.96875 -0.75 C 0.78125 -1.34375 0.6875 -1.929688 0.6875 -2.515625 C 0.6875 -3.097656 0.78125 -3.679688 0.96875 -4.265625 C 1.164062 -4.859375 1.460938 -5.460938 1.859375 -6.078125 Z M 2.484375 -6.078125 "/>
</symbol>
<symbol overflow="visible" id="glyph0-18">
<path style="stroke:none;" d="M 0.640625 -6.078125 L 1.265625 -6.078125 C 1.660156 -5.460938 1.953125 -4.859375 2.140625 -4.265625 C 2.335938 -3.679688 2.4375 -3.097656 2.4375 -2.515625 C 2.4375 -1.929688 2.335938 -1.34375 2.140625 -0.75 C 1.953125 -0.15625 1.660156 0.445312 1.265625 1.0625 L 0.640625 1.0625 C 0.984375 0.457031 1.238281 -0.132812 1.40625 -0.71875 C 1.582031 -1.3125 1.671875 -1.910156 1.671875 -2.515625 C 1.671875 -3.117188 1.582031 -3.710938 1.40625 -4.296875 C 1.238281 -4.878906 0.984375 -5.472656 0.640625 -6.078125 Z M 0.640625 -6.078125 "/>
</symbol>
<symbol overflow="visible" id="glyph0-19">
<path style="stroke:none;" d="M 1.53125 -0.671875 L 4.296875 -0.671875 L 4.296875 0 L 0.59375 0 L 0.59375 -0.671875 C 0.882812 -0.972656 1.289062 -1.382812 1.8125 -1.90625 C 2.332031 -2.4375 2.65625 -2.773438 2.78125 -2.921875 C 3.039062 -3.203125 3.21875 -3.441406 3.3125 -3.640625 C 3.414062 -3.835938 3.46875 -4.03125 3.46875 -4.21875 C 3.46875 -4.53125 3.359375 -4.785156 3.140625 -4.984375 C 2.921875 -5.179688 2.640625 -5.28125 2.296875 -5.28125 C 2.046875 -5.28125 1.78125 -5.234375 1.5 -5.140625 C 1.226562 -5.054688 0.9375 -4.925781 0.625 -4.75 L 0.625 -5.546875 C 0.945312 -5.679688 1.242188 -5.78125 1.515625 -5.84375 C 1.796875 -5.90625 2.050781 -5.9375 2.28125 -5.9375 C 2.882812 -5.9375 3.363281 -5.785156 3.71875 -5.484375 C 4.082031 -5.179688 4.265625 -4.78125 4.265625 -4.28125 C 4.265625 -4.039062 4.21875 -3.8125 4.125 -3.59375 C 4.03125 -3.375 3.867188 -3.117188 3.640625 -2.828125 C 3.566406 -2.753906 3.351562 -2.535156 3 -2.171875 C 2.65625 -1.816406 2.164062 -1.316406 1.53125 -0.671875 Z M 1.53125 -0.671875 "/>
</symbol>
<symbol overflow="visible" id="glyph0-20">
<path style="stroke:none;" d="M 3.640625 -3.71875 L 3.640625 -6.078125 L 4.359375 -6.078125 L 4.359375 0 L 3.640625 0 L 3.640625 -0.65625 C 3.484375 -0.394531 3.289062 -0.203125 3.0625 -0.078125 C 2.832031 0.046875 2.554688 0.109375 2.234375 0.109375 C 1.703125 0.109375 1.269531 -0.0976562 0.9375 -0.515625 C 0.601562 -0.941406 0.4375 -1.5 0.4375 -2.1875 C 0.4375 -2.875 0.601562 -3.425781 0.9375 -3.84375 C 1.269531 -4.269531 1.703125 -4.484375 2.234375 -4.484375 C 2.554688 -4.484375 2.832031 -4.421875 3.0625 -4.296875 C 3.289062 -4.171875 3.484375 -3.976562 3.640625 -3.71875 Z M 1.1875 -2.1875 C 1.1875 -1.65625 1.296875 -1.238281 1.515625 -0.9375 C 1.734375 -0.632812 2.03125 -0.484375 2.40625 -0.484375 C 2.789062 -0.484375 3.09375 -0.632812 3.3125 -0.9375 C 3.53125 -1.238281 3.640625 -1.65625 3.640625 -2.1875 C 3.640625 -2.71875 3.53125 -3.128906 3.3125 -3.421875 C 3.09375 -3.722656 2.789062 -3.875 2.40625 -3.875 C 2.03125 -3.875 1.734375 -3.722656 1.515625 -3.421875 C 1.296875 -3.128906 1.1875 -2.71875 1.1875 -2.1875 Z M 1.1875 -2.1875 "/>
</symbol>
<symbol overflow="visible" id="glyph0-21">
<path style="stroke:none;" d="M -0.03125 -5.828125 L 4.90625 -5.828125 L 4.90625 -5.171875 L 2.84375 -5.171875 L 2.84375 0 L 2.046875 0 L 2.046875 -5.171875 L -0.03125 -5.171875 Z M -0.03125 -5.828125 "/>
</symbol>
<symbol overflow="visible" id="glyph0-22">
<path style="stroke:none;" d="M 3.90625 -4.203125 L 3.90625 -3.53125 C 3.695312 -3.644531 3.488281 -3.726562 3.28125 -3.78125 C 3.082031 -3.84375 2.878906 -3.875 2.671875 -3.875 C 2.203125 -3.875 1.835938 -3.722656 1.578125 -3.421875 C 1.328125 -3.128906 1.203125 -2.71875 1.203125 -2.1875 C 1.203125 -1.65625 1.328125 -1.238281 1.578125 -0.9375 C 1.835938 -0.644531 2.203125 -0.5 2.671875 -0.5 C 2.878906 -0.5 3.082031 -0.523438 3.28125 -0.578125 C 3.488281 -0.640625 3.695312 -0.722656 3.90625 -0.828125 L 3.90625 -0.171875 C 3.707031 -0.078125 3.5 -0.0078125 3.28125 0.03125 C 3.0625 0.0820312 2.832031 0.109375 2.59375 0.109375 C 1.9375 0.109375 1.410156 -0.09375 1.015625 -0.5 C 0.628906 -0.914062 0.4375 -1.476562 0.4375 -2.1875 C 0.4375 -2.894531 0.632812 -3.453125 1.03125 -3.859375 C 1.425781 -4.273438 1.960938 -4.484375 2.640625 -4.484375 C 2.859375 -4.484375 3.070312 -4.457031 3.28125 -4.40625 C 3.5 -4.363281 3.707031 -4.296875 3.90625 -4.203125 Z M 3.90625 -4.203125 "/>
</symbol>
<symbol overflow="visible" id="glyph0-23">
<path style="stroke:none;" d="M 1.203125 -1 L 2 -1 L 2 0 L 1.203125 0 Z M 1.203125 -5.828125 L 2 -5.828125 L 2 -3.28125 L 1.921875 -1.875 L 1.296875 -1.875 L 1.203125 -3.28125 Z M 1.203125 -5.828125 "/>
</symbol>
<symbol overflow="visible" id="glyph0-24">
<path style="stroke:none;" d="M 0.875 -0.125 L 0.875 -0.84375 C 1.070312 -0.75 1.269531 -0.675781 1.46875 -0.625 C 1.675781 -0.570312 1.878906 -0.546875 2.078125 -0.546875 C 2.597656 -0.546875 2.992188 -0.722656 3.265625 -1.078125 C 3.546875 -1.429688 3.707031 -1.960938 3.75 -2.671875 C 3.59375 -2.453125 3.398438 -2.28125 3.171875 -2.15625 C 2.941406 -2.039062 2.6875 -1.984375 2.40625 -1.984375 C 1.820312 -1.984375 1.359375 -2.15625 1.015625 -2.5 C 0.671875 -2.851562 0.5 -3.335938 0.5 -3.953125 C 0.5 -4.554688 0.675781 -5.035156 1.03125 -5.390625 C 1.382812 -5.753906 1.859375 -5.9375 2.453125 -5.9375 C 3.128906 -5.9375 3.644531 -5.675781 4 -5.15625 C 4.351562 -4.644531 4.53125 -3.894531 4.53125 -2.90625 C 4.53125 -1.988281 4.3125 -1.253906 3.875 -0.703125 C 3.4375 -0.160156 2.847656 0.109375 2.109375 0.109375 C 1.910156 0.109375 1.707031 0.0859375 1.5 0.046875 C 1.300781 0.015625 1.09375 -0.0390625 0.875 -0.125 Z M 2.453125 -2.59375 C 2.804688 -2.59375 3.085938 -2.710938 3.296875 -2.953125 C 3.503906 -3.203125 3.609375 -3.535156 3.609375 -3.953125 C 3.609375 -4.367188 3.503906 -4.695312 3.296875 -4.9375 C 3.085938 -5.1875 2.804688 -5.3125 2.453125 -5.3125 C 2.097656 -5.3125 1.816406 -5.1875 1.609375 -4.9375 C 1.398438 -4.695312 1.296875 -4.367188 1.296875 -3.953125 C 1.296875 -3.535156 1.398438 -3.203125 1.609375 -2.953125 C 1.816406 -2.710938 2.097656 -2.59375 2.453125 -2.59375 Z M 2.453125 -2.59375 "/>
</symbol>
<symbol overflow="visible" id="glyph0-25">
<path style="stroke:none;" d="M 3.25 -3.140625 C 3.625 -3.066406 3.914062 -2.898438 4.125 -2.640625 C 4.34375 -2.390625 4.453125 -2.078125 4.453125 -1.703125 C 4.453125 -1.117188 4.253906 -0.671875 3.859375 -0.359375 C 3.460938 -0.046875 2.898438 0.109375 2.171875 0.109375 C 1.921875 0.109375 1.664062 0.0820312 1.40625 0.03125 C 1.15625 -0.0078125 0.890625 -0.078125 0.609375 -0.171875 L 0.609375 -0.9375 C 0.828125 -0.8125 1.066406 -0.710938 1.328125 -0.640625 C 1.585938 -0.578125 1.859375 -0.546875 2.140625 -0.546875 C 2.640625 -0.546875 3.019531 -0.644531 3.28125 -0.84375 C 3.539062 -1.039062 3.671875 -1.328125 3.671875 -1.703125 C 3.671875 -2.046875 3.546875 -2.3125 3.296875 -2.5 C 3.054688 -2.695312 2.722656 -2.796875 2.296875 -2.796875 L 1.625 -2.796875 L 1.625 -3.4375 L 2.328125 -3.4375 C 2.710938 -3.4375 3.007812 -3.515625 3.21875 -3.671875 C 3.425781 -3.828125 3.53125 -4.050781 3.53125 -4.34375 C 3.53125 -4.644531 3.421875 -4.875 3.203125 -5.03125 C 2.992188 -5.195312 2.691406 -5.28125 2.296875 -5.28125 C 2.078125 -5.28125 1.84375 -5.253906 1.59375 -5.203125 C 1.351562 -5.160156 1.082031 -5.085938 0.78125 -4.984375 L 0.78125 -5.6875 C 1.082031 -5.769531 1.363281 -5.832031 1.625 -5.875 C 1.882812 -5.914062 2.132812 -5.9375 2.375 -5.9375 C 2.96875 -5.9375 3.4375 -5.800781 3.78125 -5.53125 C 4.132812 -5.257812 4.3125 -4.890625 4.3125 -4.421875 C 4.3125 -4.097656 4.21875 -3.828125 4.03125 -3.609375 C 3.851562 -3.390625 3.59375 -3.234375 3.25 -3.140625 Z M 3.25 -3.140625 "/>
</symbol>
<symbol overflow="visible" id="glyph0-26">
<path style="stroke:none;" d="M 0.78125 -5.828125 L 1.84375 -5.828125 L 4.4375 -0.953125 L 4.4375 -5.828125 L 5.203125 -5.828125 L 5.203125 0 L 4.140625 0 L 1.546875 -4.875 L 1.546875 0 L 0.78125 0 Z M 0.78125 -5.828125 "/>
</symbol>
<symbol overflow="visible" id="glyph0-27">
<path style="stroke:none;" d="M 0.6875 -1.734375 L 0.6875 -4.375 L 1.40625 -4.375 L 1.40625 -1.75 C 1.40625 -1.34375 1.484375 -1.035156 1.640625 -0.828125 C 1.804688 -0.617188 2.050781 -0.515625 2.375 -0.515625 C 2.757812 -0.515625 3.0625 -0.632812 3.28125 -0.875 C 3.507812 -1.125 3.625 -1.460938 3.625 -1.890625 L 3.625 -4.375 L 4.34375 -4.375 L 4.34375 0 L 3.625 0 L 3.625 -0.671875 C 3.445312 -0.410156 3.242188 -0.210938 3.015625 -0.078125 C 2.785156 0.046875 2.519531 0.109375 2.21875 0.109375 C 1.71875 0.109375 1.335938 -0.046875 1.078125 -0.359375 C 0.816406 -0.671875 0.6875 -1.128906 0.6875 -1.734375 Z M 2.484375 -4.484375 Z M 2.484375 -4.484375 "/>
</symbol>
<symbol overflow="visible" id="glyph0-28">
<path style="stroke:none;" d="M 3.296875 -3.703125 C 3.210938 -3.753906 3.125 -3.789062 3.03125 -3.8125 C 2.9375 -3.832031 2.832031 -3.84375 2.71875 -3.84375 C 2.3125 -3.84375 2 -3.707031 1.78125 -3.4375 C 1.5625 -3.175781 1.453125 -2.800781 1.453125 -2.3125 L 1.453125 0 L 0.734375 0 L 0.734375 -4.375 L 1.453125 -4.375 L 1.453125 -3.703125 C 1.597656 -3.960938 1.789062 -4.15625 2.03125 -4.28125 C 2.28125 -4.414062 2.578125 -4.484375 2.921875 -4.484375 C 2.972656 -4.484375 3.023438 -4.476562 3.078125 -4.46875 C 3.140625 -4.46875 3.207031 -4.457031 3.28125 -4.4375 Z M 3.296875 -3.703125 "/>
</symbol>
<symbol overflow="visible" id="glyph0-29">
<path style="stroke:none;" d="M 4.390625 -2.640625 L 4.390625 0 L 3.671875 0 L 3.671875 -2.625 C 3.671875 -3.03125 3.585938 -3.335938 3.421875 -3.546875 C 3.265625 -3.753906 3.023438 -3.859375 2.703125 -3.859375 C 2.316406 -3.859375 2.007812 -3.734375 1.78125 -3.484375 C 1.5625 -3.234375 1.453125 -2.894531 1.453125 -2.46875 L 1.453125 0 L 0.734375 0 L 0.734375 -6.078125 L 1.453125 -6.078125 L 1.453125 -3.703125 C 1.617188 -3.960938 1.816406 -4.15625 2.046875 -4.28125 C 2.285156 -4.414062 2.554688 -4.484375 2.859375 -4.484375 C 3.367188 -4.484375 3.75 -4.328125 4 -4.015625 C 4.257812 -3.703125 4.390625 -3.242188 4.390625 -2.640625 Z M 4.390625 -2.640625 "/>
</symbol>
<symbol overflow="visible" id="glyph0-30">
<path style="stroke:none;" d="M 0.75 -6.078125 L 1.46875 -6.078125 L 1.46875 0 L 0.75 0 Z M 0.75 -6.078125 "/>
</symbol>
<symbol overflow="visible" id="glyph0-31">
<path style="stroke:none;" d="M 3.03125 -5.140625 L 1.03125 -2.03125 L 3.03125 -2.03125 Z M 2.8125 -5.828125 L 3.8125 -5.828125 L 3.8125 -2.03125 L 4.640625 -2.03125 L 4.640625 -1.375 L 3.8125 -1.375 L 3.8125 0 L 3.03125 0 L 3.03125 -1.375 L 0.390625 -1.375 L 0.390625 -2.140625 Z M 2.8125 -5.828125 "/>
</symbol>
<symbol overflow="visible" id="glyph0-32">
<path style="stroke:none;" d="M 0.78125 -5.828125 L 1.578125 -5.828125 L 1.578125 -3.375 L 4.1875 -5.828125 L 5.203125 -5.828125 L 2.3125 -3.109375 L 5.421875 0 L 4.375 0 L 1.578125 -2.8125 L 1.578125 0 L 0.78125 0 Z M 0.78125 -5.828125 "/>
</symbol>
<symbol overflow="visible" id="glyph0-33">
<path style="stroke:none;" d="M 4.15625 -3.53125 C 4.34375 -3.851562 4.5625 -4.09375 4.8125 -4.25 C 5.0625 -4.40625 5.351562 -4.484375 5.6875 -4.484375 C 6.144531 -4.484375 6.492188 -4.320312 6.734375 -4 C 6.984375 -3.6875 7.109375 -3.234375 7.109375 -2.640625 L 7.109375 0 L 6.390625 0 L 6.390625 -2.625 C 6.390625 -3.039062 6.316406 -3.347656 6.171875 -3.546875 C 6.023438 -3.753906 5.796875 -3.859375 5.484375 -3.859375 C 5.117188 -3.859375 4.828125 -3.734375 4.609375 -3.484375 C 4.390625 -3.234375 4.28125 -2.894531 4.28125 -2.46875 L 4.28125 0 L 3.5625 0 L 3.5625 -2.625 C 3.5625 -3.039062 3.484375 -3.347656 3.328125 -3.546875 C 3.179688 -3.753906 2.957031 -3.859375 2.65625 -3.859375 C 2.28125 -3.859375 1.984375 -3.734375 1.765625 -3.484375 C 1.554688 -3.234375 1.453125 -2.894531 1.453125 -2.46875 L 1.453125 0 L 0.734375 0 L 0.734375 -4.375 L 1.453125 -4.375 L 1.453125 -3.703125 C 1.617188 -3.960938 1.816406 -4.15625 2.046875 -4.28125 C 2.273438 -4.414062 2.546875 -4.484375 2.859375 -4.484375 C 3.171875 -4.484375 3.4375 -4.398438 3.65625 -4.234375 C 3.882812 -4.078125 4.050781 -3.84375 4.15625 -3.53125 Z M 4.15625 -3.53125 "/>
</symbol>
<symbol overflow="visible" id="glyph0-34">
<path style="stroke:none;" d="M 0.859375 -5.828125 L 3.96875 -5.828125 L 3.96875 -5.171875 L 1.59375 -5.171875 L 1.59375 -3.734375 C 1.707031 -3.773438 1.820312 -3.804688 1.9375 -3.828125 C 2.050781 -3.847656 2.164062 -3.859375 2.28125 -3.859375 C 2.925781 -3.859375 3.4375 -3.675781 3.8125 -3.3125 C 4.195312 -2.957031 4.390625 -2.476562 4.390625 -1.875 C 4.390625 -1.25 4.191406 -0.757812 3.796875 -0.40625 C 3.410156 -0.0625 2.863281 0.109375 2.15625 0.109375 C 1.90625 0.109375 1.65625 0.0859375 1.40625 0.046875 C 1.15625 0.00390625 0.894531 -0.0546875 0.625 -0.140625 L 0.625 -0.9375 C 0.851562 -0.800781 1.09375 -0.703125 1.34375 -0.640625 C 1.59375 -0.578125 1.859375 -0.546875 2.140625 -0.546875 C 2.585938 -0.546875 2.941406 -0.664062 3.203125 -0.90625 C 3.472656 -1.144531 3.609375 -1.46875 3.609375 -1.875 C 3.609375 -2.28125 3.472656 -2.597656 3.203125 -2.828125 C 2.941406 -3.066406 2.585938 -3.1875 2.140625 -3.1875 C 1.929688 -3.1875 1.71875 -3.160156 1.5 -3.109375 C 1.289062 -3.066406 1.078125 -3 0.859375 -2.90625 Z M 0.859375 -5.828125 "/>
</symbol>
<symbol overflow="visible" id="glyph0-35">
<path style="stroke:none;" d="M 3.328125 -6.359375 C 3.328125 -6.515625 3.269531 -6.648438 3.15625 -6.765625 C 3.039062 -6.890625 2.898438 -6.953125 2.734375 -6.953125 C 2.566406 -6.953125 2.425781 -6.894531 2.3125 -6.78125 C 2.195312 -6.664062 2.140625 -6.523438 2.140625 -6.359375 C 2.140625 -6.191406 2.195312 -6.050781 2.3125 -5.9375 C 2.425781 -5.820312 2.566406 -5.765625 2.734375 -5.765625 C 2.898438 -5.765625 3.039062 -5.820312 3.15625 -5.9375 C 3.269531 -6.050781 3.328125 -6.191406 3.328125 -6.359375 Z M 2.734375 -5.0625 L 1.671875 -2.15625 L 3.796875 -2.15625 Z M 2.140625 -5.453125 C 1.984375 -5.566406 1.863281 -5.695312 1.78125 -5.84375 C 1.707031 -5.988281 1.671875 -6.160156 1.671875 -6.359375 C 1.671875 -6.648438 1.769531 -6.898438 1.96875 -7.109375 C 2.175781 -7.316406 2.429688 -7.421875 2.734375 -7.421875 C 3.035156 -7.421875 3.289062 -7.316406 3.5 -7.109375 C 3.707031 -6.898438 3.8125 -6.648438 3.8125 -6.359375 C 3.8125 -6.171875 3.769531 -6 3.6875 -5.84375 C 3.601562 -5.695312 3.484375 -5.566406 3.328125 -5.453125 L 5.40625 0 L 4.59375 0 L 4.0625 -1.5 L 1.421875 -1.5 L 0.890625 0 L 0.0625 0 Z M 2.140625 -5.453125 "/>
</symbol>
<symbol overflow="visible" id="glyph0-36">
<path style="stroke:none;" d="M 0.65625 -5.828125 L 4.40625 -5.828125 L 4.40625 -5.5 L 2.296875 0 L 1.46875 0 L 3.453125 -5.171875 L 0.65625 -5.171875 Z M 0.65625 -5.828125 "/>
</symbol>
<symbol overflow="visible" id="glyph1-0">
<path style="stroke:none;" d="M 0.703125 2.46875 L 0.703125 -9.875 L 7.703125 -9.875 L 7.703125 2.46875 Z M 1.484375 1.703125 L 6.921875 1.703125 L 6.921875 -9.078125 L 1.484375 -9.078125 Z M 1.484375 1.703125 "/>
</symbol>
<symbol overflow="visible" id="glyph1-1">
<path style="stroke:none;" d="M 1.28125 -10.203125 L 8.390625 -10.203125 L 8.390625 -8.21875 L 3.921875 -8.21875 L 3.921875 -6.3125 L 8.125 -6.3125 L 8.125 -4.328125 L 3.921875 -4.328125 L 3.921875 0 L 1.28125 0 Z M 1.28125 -10.203125 "/>
</symbol>
<symbol overflow="visible" id="glyph1-2">
<path style="stroke:none;" d="M 4.8125 -6.09375 C 4.269531 -6.09375 3.859375 -5.894531 3.578125 -5.5 C 3.296875 -5.113281 3.15625 -4.554688 3.15625 -3.828125 C 3.15625 -3.085938 3.296875 -2.519531 3.578125 -2.125 C 3.859375 -1.738281 4.269531 -1.546875 4.8125 -1.546875 C 5.351562 -1.546875 5.765625 -1.738281 6.046875 -2.125 C 6.328125 -2.519531 6.46875 -3.085938 6.46875 -3.828125 C 6.46875 -4.554688 6.328125 -5.113281 6.046875 -5.5 C 5.765625 -5.894531 5.351562 -6.09375 4.8125 -6.09375 Z M 4.8125 -7.84375 C 6.132812 -7.84375 7.164062 -7.484375 7.90625 -6.765625 C 8.644531 -6.054688 9.015625 -5.078125 9.015625 -3.828125 C 9.015625 -2.566406 8.644531 -1.578125 7.90625 -0.859375 C 7.164062 -0.148438 6.132812 0.203125 4.8125 0.203125 C 3.5 0.203125 2.46875 -0.148438 1.71875 -0.859375 C 0.976562 -1.578125 0.609375 -2.566406 0.609375 -3.828125 C 0.609375 -5.078125 0.976562 -6.054688 1.71875 -6.765625 C 2.46875 -7.484375 3.5 -7.84375 4.8125 -7.84375 Z M 4.8125 -7.84375 "/>
</symbol>
<symbol overflow="visible" id="glyph1-3">
<path style="stroke:none;" d="M 6.859375 -5.578125 C 6.648438 -5.671875 6.4375 -5.738281 6.21875 -5.78125 C 6.007812 -5.832031 5.796875 -5.859375 5.578125 -5.859375 C 4.953125 -5.859375 4.46875 -5.65625 4.125 -5.25 C 3.789062 -4.851562 3.625 -4.28125 3.625 -3.53125 L 3.625 0 L 1.171875 0 L 1.171875 -7.65625 L 3.625 -7.65625 L 3.625 -6.40625 C 3.9375 -6.90625 4.296875 -7.269531 4.703125 -7.5 C 5.109375 -7.726562 5.597656 -7.84375 6.171875 -7.84375 C 6.253906 -7.84375 6.34375 -7.835938 6.4375 -7.828125 C 6.53125 -7.828125 6.671875 -7.8125 6.859375 -7.78125 Z M 6.859375 -5.578125 "/>
</symbol>
<symbol overflow="visible" id="glyph1-4">
<path style="stroke:none;" d="M 6.390625 -6.53125 L 6.390625 -10.640625 L 8.84375 -10.640625 L 8.84375 0 L 6.390625 0 L 6.390625 -1.109375 C 6.046875 -0.660156 5.671875 -0.328125 5.265625 -0.109375 C 4.859375 0.0976562 4.390625 0.203125 3.859375 0.203125 C 2.921875 0.203125 2.144531 -0.171875 1.53125 -0.921875 C 0.925781 -1.671875 0.625 -2.640625 0.625 -3.828125 C 0.625 -5.003906 0.925781 -5.96875 1.53125 -6.71875 C 2.144531 -7.46875 2.921875 -7.84375 3.859375 -7.84375 C 4.390625 -7.84375 4.859375 -7.734375 5.265625 -7.515625 C 5.671875 -7.304688 6.046875 -6.976562 6.390625 -6.53125 Z M 4.765625 -1.578125 C 5.296875 -1.578125 5.695312 -1.769531 5.96875 -2.15625 C 6.25 -2.539062 6.390625 -3.097656 6.390625 -3.828125 C 6.390625 -4.554688 6.25 -5.109375 5.96875 -5.484375 C 5.695312 -5.867188 5.296875 -6.0625 4.765625 -6.0625 C 4.253906 -6.0625 3.859375 -5.867188 3.578125 -5.484375 C 3.304688 -5.109375 3.171875 -4.554688 3.171875 -3.828125 C 3.171875 -3.097656 3.304688 -2.539062 3.578125 -2.15625 C 3.859375 -1.769531 4.253906 -1.578125 4.765625 -1.578125 Z M 4.765625 -1.578125 "/>
</symbol>
<symbol overflow="visible" id="glyph1-5">
<path style="stroke:none;" d="M 8.8125 -3.84375 L 8.8125 -3.15625 L 3.09375 -3.15625 C 3.15625 -2.582031 3.363281 -2.148438 3.71875 -1.859375 C 4.070312 -1.566406 4.566406 -1.421875 5.203125 -1.421875 C 5.722656 -1.421875 6.253906 -1.5 6.796875 -1.65625 C 7.335938 -1.8125 7.890625 -2.046875 8.453125 -2.359375 L 8.453125 -0.46875 C 7.878906 -0.25 7.300781 -0.0820312 6.71875 0.03125 C 6.144531 0.144531 5.566406 0.203125 4.984375 0.203125 C 3.597656 0.203125 2.519531 -0.148438 1.75 -0.859375 C 0.988281 -1.566406 0.609375 -2.554688 0.609375 -3.828125 C 0.609375 -5.066406 0.984375 -6.046875 1.734375 -6.765625 C 2.484375 -7.484375 3.519531 -7.84375 4.84375 -7.84375 C 6.050781 -7.84375 7.015625 -7.476562 7.734375 -6.75 C 8.453125 -6.03125 8.8125 -5.0625 8.8125 -3.84375 Z M 6.296875 -4.65625 C 6.296875 -5.125 6.160156 -5.5 5.890625 -5.78125 C 5.617188 -6.070312 5.265625 -6.21875 4.828125 -6.21875 C 4.359375 -6.21875 3.972656 -6.082031 3.671875 -5.8125 C 3.378906 -5.550781 3.195312 -5.164062 3.125 -4.65625 Z M 6.296875 -4.65625 "/>
</symbol>
<symbol overflow="visible" id="glyph1-6">
<path style="stroke:none;" d="M 1.171875 -10.640625 L 3.625 -10.640625 L 3.625 0 L 1.171875 0 Z M 1.171875 -10.640625 "/>
</symbol>
<symbol overflow="visible" id="glyph1-7">
<path style="stroke:none;" d="M 1.171875 -7.65625 L 3.625 -7.65625 L 3.625 0 L 1.171875 0 Z M 1.171875 -10.640625 L 3.625 -10.640625 L 3.625 -8.640625 L 1.171875 -8.640625 Z M 1.171875 -10.640625 "/>
</symbol>
<symbol overflow="visible" id="glyph1-8">
<path style="stroke:none;" d="M 8.875 -4.65625 L 8.875 0 L 6.40625 0 L 6.40625 -3.5625 C 6.40625 -4.226562 6.390625 -4.6875 6.359375 -4.9375 C 6.335938 -5.1875 6.289062 -5.367188 6.21875 -5.484375 C 6.125 -5.648438 5.992188 -5.773438 5.828125 -5.859375 C 5.660156 -5.953125 5.472656 -6 5.265625 -6 C 4.753906 -6 4.351562 -5.800781 4.0625 -5.40625 C 3.769531 -5.007812 3.625 -4.460938 3.625 -3.765625 L 3.625 0 L 1.171875 0 L 1.171875 -7.65625 L 3.625 -7.65625 L 3.625 -6.53125 C 3.988281 -6.976562 4.378906 -7.304688 4.796875 -7.515625 C 5.210938 -7.734375 5.671875 -7.84375 6.171875 -7.84375 C 7.054688 -7.84375 7.726562 -7.570312 8.1875 -7.03125 C 8.644531 -6.488281 8.875 -5.695312 8.875 -4.65625 Z M 8.875 -4.65625 "/>
</symbol>
<symbol overflow="visible" id="glyph1-9">
<path style="stroke:none;" d="M 6.390625 -1.296875 C 6.046875 -0.847656 5.671875 -0.519531 5.265625 -0.3125 C 4.859375 -0.101562 4.390625 0 3.859375 0 C 2.929688 0 2.160156 -0.363281 1.546875 -1.09375 C 0.929688 -1.832031 0.625 -2.773438 0.625 -3.921875 C 0.625 -5.066406 0.929688 -6.003906 1.546875 -6.734375 C 2.160156 -7.460938 2.929688 -7.828125 3.859375 -7.828125 C 4.390625 -7.828125 4.859375 -7.722656 5.265625 -7.515625 C 5.671875 -7.304688 6.046875 -6.972656 6.390625 -6.515625 L 6.390625 -7.65625 L 8.84375 -7.65625 L 8.84375 -0.765625 C 8.84375 0.460938 8.453125 1.398438 7.671875 2.046875 C 6.898438 2.691406 5.773438 3.015625 4.296875 3.015625 C 3.816406 3.015625 3.351562 2.976562 2.90625 2.90625 C 2.46875 2.832031 2.019531 2.722656 1.5625 2.578125 L 1.5625 0.671875 C 1.988281 0.921875 2.40625 1.101562 2.8125 1.21875 C 3.226562 1.34375 3.644531 1.40625 4.0625 1.40625 C 4.863281 1.40625 5.453125 1.226562 5.828125 0.875 C 6.203125 0.519531 6.390625 -0.0234375 6.390625 -0.765625 Z M 4.765625 -6.0625 C 4.265625 -6.0625 3.875 -5.875 3.59375 -5.5 C 3.3125 -5.125 3.171875 -4.597656 3.171875 -3.921875 C 3.171875 -3.210938 3.304688 -2.675781 3.578125 -2.3125 C 3.847656 -1.957031 4.242188 -1.78125 4.765625 -1.78125 C 5.273438 -1.78125 5.671875 -1.96875 5.953125 -2.34375 C 6.242188 -2.71875 6.390625 -3.242188 6.390625 -3.921875 C 6.390625 -4.597656 6.242188 -5.125 5.953125 -5.5 C 5.671875 -5.875 5.273438 -6.0625 4.765625 -6.0625 Z M 4.765625 -6.0625 "/>
</symbol>
<symbol overflow="visible" id="glyph1-10">
<path style="stroke:none;" d=""/>
</symbol>
<symbol overflow="visible" id="glyph1-11">
<path style="stroke:none;" d="M 4.609375 -3.453125 C 4.097656 -3.453125 3.710938 -3.363281 3.453125 -3.1875 C 3.191406 -3.007812 3.0625 -2.753906 3.0625 -2.421875 C 3.0625 -2.109375 3.164062 -1.863281 3.375 -1.6875 C 3.582031 -1.507812 3.875 -1.421875 4.25 -1.421875 C 4.707031 -1.421875 5.09375 -1.585938 5.40625 -1.921875 C 5.71875 -2.253906 5.875 -2.671875 5.875 -3.171875 L 5.875 -3.453125 Z M 8.34375 -4.375 L 8.34375 0 L 5.875 0 L 5.875 -1.140625 C 5.550781 -0.671875 5.179688 -0.328125 4.765625 -0.109375 C 4.359375 0.0976562 3.863281 0.203125 3.28125 0.203125 C 2.476562 0.203125 1.832031 -0.0234375 1.34375 -0.484375 C 0.851562 -0.953125 0.609375 -1.554688 0.609375 -2.296875 C 0.609375 -3.191406 0.914062 -3.847656 1.53125 -4.265625 C 2.144531 -4.691406 3.113281 -4.90625 4.4375 -4.90625 L 5.875 -4.90625 L 5.875 -5.09375 C 5.875 -5.476562 5.722656 -5.757812 5.421875 -5.9375 C 5.117188 -6.125 4.644531 -6.21875 4 -6.21875 C 3.46875 -6.21875 2.976562 -6.164062 2.53125 -6.0625 C 2.082031 -5.957031 1.660156 -5.796875 1.265625 -5.578125 L 1.265625 -7.453125 C 1.796875 -7.578125 2.320312 -7.671875 2.84375 -7.734375 C 3.375 -7.804688 3.90625 -7.84375 4.4375 -7.84375 C 5.820312 -7.84375 6.816406 -7.566406 7.421875 -7.015625 C 8.035156 -6.472656 8.34375 -5.59375 8.34375 -4.375 Z M 8.34375 -4.375 "/>
</symbol>
<symbol overflow="visible" id="glyph1-12">
<path style="stroke:none;" d="M 0.21875 -7.65625 L 2.65625 -7.65625 L 4.5625 -2.359375 L 6.46875 -7.65625 L 8.921875 -7.65625 L 5.90625 0 L 3.21875 0 Z M 0.21875 -7.65625 "/>
</symbol>
<symbol overflow="visible" id="glyph1-13">
<path style="stroke:none;" d="M 7.359375 -7.421875 L 7.359375 -5.421875 C 7.023438 -5.648438 6.691406 -5.816406 6.359375 -5.921875 C 6.023438 -6.035156 5.675781 -6.09375 5.3125 -6.09375 C 4.632812 -6.09375 4.101562 -5.890625 3.71875 -5.484375 C 3.34375 -5.085938 3.15625 -4.535156 3.15625 -3.828125 C 3.15625 -3.109375 3.34375 -2.546875 3.71875 -2.140625 C 4.101562 -1.742188 4.632812 -1.546875 5.3125 -1.546875 C 5.695312 -1.546875 6.0625 -1.601562 6.40625 -1.71875 C 6.75 -1.832031 7.066406 -2.003906 7.359375 -2.234375 L 7.359375 -0.21875 C 6.972656 -0.0820312 6.582031 0.0195312 6.1875 0.09375 C 5.800781 0.164062 5.410156 0.203125 5.015625 0.203125 C 3.628906 0.203125 2.546875 -0.148438 1.765625 -0.859375 C 0.992188 -1.566406 0.609375 -2.554688 0.609375 -3.828125 C 0.609375 -5.085938 0.992188 -6.070312 1.765625 -6.78125 C 2.546875 -7.488281 3.628906 -7.84375 5.015625 -7.84375 C 5.410156 -7.84375 5.800781 -7.804688 6.1875 -7.734375 C 6.582031 -7.660156 6.972656 -7.554688 7.359375 -7.421875 Z M 7.359375 -7.421875 "/>
</symbol>
<symbol overflow="visible" id="glyph1-14">
<path style="stroke:none;" d="M 7.15625 -7.421875 L 7.15625 -5.5625 C 6.632812 -5.78125 6.128906 -5.941406 5.640625 -6.046875 C 5.148438 -6.160156 4.691406 -6.21875 4.265625 -6.21875 C 3.796875 -6.21875 3.445312 -6.15625 3.21875 -6.03125 C 3 -5.914062 2.890625 -5.738281 2.890625 -5.5 C 2.890625 -5.300781 2.972656 -5.148438 3.140625 -5.046875 C 3.304688 -4.941406 3.613281 -4.863281 4.0625 -4.8125 L 4.484375 -4.765625 C 5.742188 -4.597656 6.585938 -4.332031 7.015625 -3.96875 C 7.453125 -3.601562 7.671875 -3.03125 7.671875 -2.25 C 7.671875 -1.4375 7.367188 -0.820312 6.765625 -0.40625 C 6.160156 0 5.265625 0.203125 4.078125 0.203125 C 3.566406 0.203125 3.039062 0.160156 2.5 0.078125 C 1.96875 -0.00390625 1.414062 -0.125 0.84375 -0.28125 L 0.84375 -2.140625 C 1.332031 -1.898438 1.832031 -1.71875 2.34375 -1.59375 C 2.851562 -1.476562 3.375 -1.421875 3.90625 -1.421875 C 4.382812 -1.421875 4.742188 -1.488281 4.984375 -1.625 C 5.222656 -1.757812 5.34375 -1.957031 5.34375 -2.21875 C 5.34375 -2.4375 5.257812 -2.597656 5.09375 -2.703125 C 4.925781 -2.804688 4.597656 -2.890625 4.109375 -2.953125 L 3.671875 -3.015625 C 2.578125 -3.148438 1.8125 -3.398438 1.375 -3.765625 C 0.9375 -4.140625 0.71875 -4.703125 0.71875 -5.453125 C 0.71875 -6.265625 0.992188 -6.863281 1.546875 -7.25 C 2.109375 -7.644531 2.960938 -7.84375 4.109375 -7.84375 C 4.566406 -7.84375 5.039062 -7.804688 5.53125 -7.734375 C 6.03125 -7.671875 6.570312 -7.566406 7.15625 -7.421875 Z M 7.15625 -7.421875 "/>
</symbol>
<symbol overflow="visible" id="glyph1-15">
<path style="stroke:none;" d="M 4.03125 -1.9375 L 8.53125 -1.9375 L 8.53125 0 L 1.109375 0 L 1.109375 -1.9375 L 4.828125 -5.21875 C 5.160156 -5.519531 5.40625 -5.8125 5.5625 -6.09375 C 5.726562 -6.382812 5.8125 -6.6875 5.8125 -7 C 5.8125 -7.476562 5.648438 -7.863281 5.328125 -8.15625 C 5.003906 -8.445312 4.578125 -8.59375 4.046875 -8.59375 C 3.640625 -8.59375 3.191406 -8.503906 2.703125 -8.328125 C 2.210938 -8.148438 1.691406 -7.890625 1.140625 -7.546875 L 1.140625 -9.796875 C 1.734375 -9.984375 2.316406 -10.128906 2.890625 -10.234375 C 3.472656 -10.335938 4.039062 -10.390625 4.59375 -10.390625 C 5.8125 -10.390625 6.757812 -10.117188 7.4375 -9.578125 C 8.113281 -9.046875 8.453125 -8.296875 8.453125 -7.328125 C 8.453125 -6.773438 8.304688 -6.257812 8.015625 -5.78125 C 7.734375 -5.300781 7.132812 -4.65625 6.21875 -3.84375 Z M 4.03125 -1.9375 "/>
</symbol>
<symbol overflow="visible" id="glyph1-16">
<path style="stroke:none;" d="M 6.4375 -5.109375 C 6.4375 -6.390625 6.316406 -7.289062 6.078125 -7.8125 C 5.835938 -8.332031 5.4375 -8.59375 4.875 -8.59375 C 4.3125 -8.59375 3.90625 -8.332031 3.65625 -7.8125 C 3.414062 -7.289062 3.296875 -6.390625 3.296875 -5.109375 C 3.296875 -3.816406 3.414062 -2.90625 3.65625 -2.375 C 3.90625 -1.851562 4.3125 -1.59375 4.875 -1.59375 C 5.4375 -1.59375 5.835938 -1.851562 6.078125 -2.375 C 6.316406 -2.90625 6.4375 -3.816406 6.4375 -5.109375 Z M 9.078125 -5.09375 C 9.078125 -3.40625 8.710938 -2.097656 7.984375 -1.171875 C 7.253906 -0.253906 6.21875 0.203125 4.875 0.203125 C 3.53125 0.203125 2.492188 -0.253906 1.765625 -1.171875 C 1.035156 -2.097656 0.671875 -3.40625 0.671875 -5.09375 C 0.671875 -6.789062 1.035156 -8.097656 1.765625 -9.015625 C 2.492188 -9.929688 3.53125 -10.390625 4.875 -10.390625 C 6.21875 -10.390625 7.253906 -9.929688 7.984375 -9.015625 C 8.710938 -8.097656 9.078125 -6.789062 9.078125 -5.09375 Z M 9.078125 -5.09375 "/>
</symbol>
<symbol overflow="visible" id="glyph1-17">
<path style="stroke:none;" d="M 5.0625 -5.03125 C 4.601562 -5.03125 4.257812 -4.878906 4.03125 -4.578125 C 3.800781 -4.285156 3.6875 -3.84375 3.6875 -3.25 C 3.6875 -2.65625 3.800781 -2.207031 4.03125 -1.90625 C 4.257812 -1.601562 4.601562 -1.453125 5.0625 -1.453125 C 5.53125 -1.453125 5.878906 -1.601562 6.109375 -1.90625 C 6.335938 -2.207031 6.453125 -2.65625 6.453125 -3.25 C 6.453125 -3.84375 6.335938 -4.285156 6.109375 -4.578125 C 5.878906 -4.878906 5.53125 -5.03125 5.0625 -5.03125 Z M 8.3125 -9.9375 L 8.3125 -8.046875 C 7.882812 -8.253906 7.476562 -8.40625 7.09375 -8.5 C 6.707031 -8.601562 6.332031 -8.65625 5.96875 -8.65625 C 5.1875 -8.65625 4.578125 -8.4375 4.140625 -8 C 3.703125 -7.5625 3.445312 -6.914062 3.375 -6.0625 C 3.675781 -6.289062 4 -6.457031 4.34375 -6.5625 C 4.695312 -6.675781 5.082031 -6.734375 5.5 -6.734375 C 6.539062 -6.734375 7.378906 -6.425781 8.015625 -5.8125 C 8.660156 -5.207031 8.984375 -4.410156 8.984375 -3.421875 C 8.984375 -2.328125 8.625 -1.445312 7.90625 -0.78125 C 7.195312 -0.125 6.238281 0.203125 5.03125 0.203125 C 3.707031 0.203125 2.679688 -0.242188 1.953125 -1.140625 C 1.234375 -2.035156 0.875 -3.304688 0.875 -4.953125 C 0.875 -6.640625 1.296875 -7.960938 2.140625 -8.921875 C 2.992188 -9.890625 4.160156 -10.375 5.640625 -10.375 C 6.109375 -10.375 6.5625 -10.335938 7 -10.265625 C 7.445312 -10.191406 7.882812 -10.082031 8.3125 -9.9375 Z M 8.3125 -9.9375 "/>
</symbol>
</g>
<clipPath id="clip1">
  <path d="M 19.265625 255 L 28 255 L 28 264 L 19.265625 264 Z M 19.265625 255 "/>
</clipPath>
<clipPath id="clip2">
  <path d="M 19.265625 265 L 28 265 L 28 274 L 19.265625 274 Z M 19.265625 265 "/>
</clipPath>
<clipPath id="clip3">
  <path d="M 19.265625 275 L 28 275 L 28 283 L 19.265625 283 Z M 19.265625 275 "/>
</clipPath>
<clipPath id="clip4">
  <path d="M 19.265625 275 L 28 275 L 28 284 L 19.265625 284 Z M 19.265625 275 "/>
</clipPath>
</defs>
<g id="surface72672">
<path style=" stroke:none;fill-rule:nonzero;fill:rgb(100%,100%,100%);fill-opacity:1;" d="M 0 0 L 335.535156 0 L 335.535156 296.25 L 0 296.25 Z M 0 0 "/>
<path style=" stroke:none;fill-rule:nonzero;fill:rgb(100%,100%,100%);fill-opacity:1;" d="M 4.042969 32.925781 L 331.492188 32.925781 L 331.492188 292.207031 L 4.042969 292.207031 Z M 4.042969 32.925781 "/>
<path style="fill-rule:nonzero;fill:rgb(61.176471%,61.176471%,100%);fill-opacity:1;stroke-width:0.5;stroke-linecap:round;stroke-linejoin:round;stroke:rgb(0%,0%,0%);stroke-opacity:1;stroke-miterlimit:10;" d="M 168.355469 37.238281 C 172.257812 37.238281 176.160156 37.480469 180.035156 37.957031 L 168.355469 132.292969 Z M 168.355469 37.238281 "/>
<path style="fill-rule:nonzero;fill:rgb(61.176471%,19.215686%,38.823529%);fill-opacity:1;stroke-width:0.5;stroke-linecap:round;stroke-linejoin:round;stroke:rgb(0%,0%,0%);stroke-opacity:1;stroke-miterlimit:10;" d="M 185.421875 40.046875 C 221.210938 44.476562 251.40625 68.777344 263.394531 102.789062 L 173.742188 134.378906 Z M 185.421875 40.046875 "/>
<path style="fill-rule:nonzero;fill:rgb(100%,100%,80.784314%);fill-opacity:1;stroke-width:0.5;stroke-linecap:round;stroke-linejoin:round;stroke:rgb(0%,0%,0%);stroke-opacity:1;stroke-miterlimit:10;" d="M 261.925781 118.609375 C 277.503906 162.8125 258.535156 211.773438 217.246094 233.945312 C 175.953125 256.117188 124.664062 244.886719 96.421875 207.484375 L 172.277344 150.199219 Z M 261.925781 118.609375 "/>
<path style="fill-rule:nonzero;fill:rgb(80.784314%,100%,100%);fill-opacity:1;stroke-width:0.5;stroke-linecap:round;stroke-linejoin:round;stroke:rgb(0%,0%,0%);stroke-opacity:1;stroke-miterlimit:10;" d="M 82.386719 198.792969 C 55.472656 163.152344 57 113.582031 86.054688 79.667969 L 158.242188 141.511719 Z M 82.386719 198.792969 "/>
<path style="fill-rule:nonzero;fill:rgb(38.823529%,0%,38.823529%);fill-opacity:1;stroke-width:0.5;stroke-linecap:round;stroke-linejoin:round;stroke:rgb(0%,0%,0%);stroke-opacity:1;stroke-miterlimit:10;" d="M 91.597656 71.300781 C 109.65625 50.222656 136.027344 38.09375 163.785156 38.09375 L 163.785156 133.148438 Z M 91.597656 71.300781 "/>
<path style="fill-rule:nonzero;fill:rgb(100%,100%,100%);fill-opacity:1;stroke-width:0.5;stroke-linecap:round;stroke-linejoin:round;stroke:rgb(0%,0%,0%);stroke-opacity:1;stroke-miterlimit:10;" d="M 15.472656 250.890625 L 320.058594 250.890625 L 320.058594 287.914062 L 15.472656 287.914062 Z M 15.472656 250.890625 "/>
<g clip-path="url(#clip1)" clip-rule="nonzero">
<path style="fill-rule:nonzero;fill:rgb(61.176471%,61.176471%,100%);fill-opacity:1;stroke-width:0.5;stroke-linecap:round;stroke-linejoin:round;stroke:rgb(0%,0%,0%);stroke-opacity:1;stroke-miterlimit:10;" d="M 19.515625 255.839844 L 27.015625 255.839844 L 27.015625 263.339844 L 19.515625 263.339844 Z M 19.515625 255.839844 "/>
</g>
<g style="fill:rgb(0%,0%,0%);fill-opacity:1;">
  <use xlink:href="#glyph0-1" x="31.265625" y="262.109375"/>
  <use xlink:href="#glyph0-2" x="37.265625" y="262.109375"/>
  <use xlink:href="#glyph0-3" x="42.265625" y="262.109375"/>
  <use xlink:href="#glyph0-4" x="46.265625" y="262.109375"/>
  <use xlink:href="#glyph0-5" x="51.265625" y="262.109375"/>
  <use xlink:href="#glyph0-6" x="54.265625" y="262.109375"/>
  <use xlink:href="#glyph0-7" x="59.265625" y="262.109375"/>
  <use xlink:href="#glyph0-5" x="62.265625" y="262.109375"/>
  <use xlink:href="#glyph0-8" x="65.265625" y="262.109375"/>
  <use xlink:href="#glyph0-2" x="70.265625" y="262.109375"/>
  <use xlink:href="#glyph0-9" x="75.265625" y="262.109375"/>
  <use xlink:href="#glyph0-4" x="79.265625" y="262.109375"/>
  <use xlink:href="#glyph0-10" x="84.265625" y="262.109375"/>
  <use xlink:href="#glyph0-10" x="87.265625" y="262.109375"/>
  <use xlink:href="#glyph0-11" x="90.265625" y="262.109375"/>
  <use xlink:href="#glyph0-12" x="95.265625" y="262.109375"/>
  <use xlink:href="#glyph0-12" x="100.265625" y="262.109375"/>
  <use xlink:href="#glyph0-3" x="105.265625" y="262.109375"/>
  <use xlink:href="#glyph0-9" x="109.265625" y="262.109375"/>
  <use xlink:href="#glyph0-13" x="113.265625" y="262.109375"/>
  <use xlink:href="#glyph0-10" x="118.265625" y="262.109375"/>
  <use xlink:href="#glyph0-14" x="121.265625" y="262.109375"/>
  <use xlink:href="#glyph0-15" x="126.265625" y="262.109375"/>
  <use xlink:href="#glyph0-14" x="128.265625" y="262.109375"/>
  <use xlink:href="#glyph0-16" x="133.265625" y="262.109375"/>
  <use xlink:href="#glyph0-5" x="138.265625" y="262.109375"/>
  <use xlink:href="#glyph0-17" x="141.265625" y="262.109375"/>
  <use xlink:href="#glyph0-6" x="144.265625" y="262.109375"/>
  <use xlink:href="#glyph0-18" x="149.265625" y="262.109375"/>
</g>
<path style="fill-rule:nonzero;fill:rgb(61.176471%,19.215686%,38.823529%);fill-opacity:1;stroke-width:0.5;stroke-linecap:round;stroke-linejoin:round;stroke:rgb(0%,0%,0%);stroke-opacity:1;stroke-miterlimit:10;" d="M 172.015625 255.839844 L 179.515625 255.839844 L 179.515625 263.339844 L 172.015625 263.339844 Z M 172.015625 255.839844 "/>
<g style="fill:rgb(0%,0%,0%);fill-opacity:1;">
  <use xlink:href="#glyph0-1" x="183.765625" y="262.109375"/>
  <use xlink:href="#glyph0-2" x="189.765625" y="262.109375"/>
  <use xlink:href="#glyph0-3" x="194.765625" y="262.109375"/>
  <use xlink:href="#glyph0-4" x="198.765625" y="262.109375"/>
  <use xlink:href="#glyph0-5" x="203.765625" y="262.109375"/>
  <use xlink:href="#glyph0-19" x="206.765625" y="262.109375"/>
  <use xlink:href="#glyph0-7" x="211.765625" y="262.109375"/>
  <use xlink:href="#glyph0-5" x="214.765625" y="262.109375"/>
  <use xlink:href="#glyph0-8" x="217.765625" y="262.109375"/>
  <use xlink:href="#glyph0-4" x="222.765625" y="262.109375"/>
  <use xlink:href="#glyph0-20" x="227.765625" y="262.109375"/>
  <use xlink:href="#glyph0-20" x="232.765625" y="262.109375"/>
  <use xlink:href="#glyph0-5" x="237.765625" y="262.109375"/>
  <use xlink:href="#glyph0-21" x="240.765625" y="262.109375"/>
  <use xlink:href="#glyph0-15" x="245.765625" y="262.109375"/>
  <use xlink:href="#glyph0-10" x="247.765625" y="262.109375"/>
  <use xlink:href="#glyph0-2" x="250.765625" y="262.109375"/>
  <use xlink:href="#glyph0-14" x="255.765625" y="262.109375"/>
  <use xlink:href="#glyph0-15" x="260.765625" y="262.109375"/>
  <use xlink:href="#glyph0-22" x="262.765625" y="262.109375"/>
  <use xlink:href="#glyph0-23" x="266.765625" y="262.109375"/>
  <use xlink:href="#glyph0-5" x="269.765625" y="262.109375"/>
  <use xlink:href="#glyph0-17" x="272.765625" y="262.109375"/>
  <use xlink:href="#glyph0-24" x="275.765625" y="262.109375"/>
  <use xlink:href="#glyph0-18" x="280.765625" y="262.109375"/>
</g>
<g clip-path="url(#clip2)" clip-rule="nonzero">
<path style="fill-rule:nonzero;fill:rgb(100%,100%,80.784314%);fill-opacity:1;stroke-width:0.5;stroke-linecap:round;stroke-linejoin:round;stroke:rgb(0%,0%,0%);stroke-opacity:1;stroke-miterlimit:10;" d="M 19.515625 265.652344 L 27.015625 265.652344 L 27.015625 273.152344 L 19.515625 273.152344 Z M 19.515625 265.652344 "/>
</g>
<g style="fill:rgb(0%,0%,0%);fill-opacity:1;">
  <use xlink:href="#glyph0-1" x="31.265625" y="271.921875"/>
  <use xlink:href="#glyph0-2" x="37.265625" y="271.921875"/>
  <use xlink:href="#glyph0-3" x="42.265625" y="271.921875"/>
  <use xlink:href="#glyph0-4" x="46.265625" y="271.921875"/>
  <use xlink:href="#glyph0-5" x="51.265625" y="271.921875"/>
  <use xlink:href="#glyph0-25" x="54.265625" y="271.921875"/>
  <use xlink:href="#glyph0-7" x="59.265625" y="271.921875"/>
  <use xlink:href="#glyph0-5" x="62.265625" y="271.921875"/>
  <use xlink:href="#glyph0-26" x="65.265625" y="271.921875"/>
  <use xlink:href="#glyph0-2" x="71.265625" y="271.921875"/>
  <use xlink:href="#glyph0-10" x="76.265625" y="271.921875"/>
  <use xlink:href="#glyph0-27" x="79.265625" y="271.921875"/>
  <use xlink:href="#glyph0-28" x="84.265625" y="271.921875"/>
  <use xlink:href="#glyph0-29" x="87.265625" y="271.921875"/>
  <use xlink:href="#glyph0-4" x="92.265625" y="271.921875"/>
  <use xlink:href="#glyph0-14" x="97.265625" y="271.921875"/>
  <use xlink:href="#glyph0-20" x="102.265625" y="271.921875"/>
  <use xlink:href="#glyph0-4" x="107.265625" y="271.921875"/>
  <use xlink:href="#glyph0-30" x="112.265625" y="271.921875"/>
  <use xlink:href="#glyph0-3" x="114.265625" y="271.921875"/>
  <use xlink:href="#glyph0-4" x="118.265625" y="271.921875"/>
  <use xlink:href="#glyph0-28" x="123.265625" y="271.921875"/>
  <use xlink:href="#glyph0-5" x="126.265625" y="271.921875"/>
  <use xlink:href="#glyph0-17" x="129.265625" y="271.921875"/>
  <use xlink:href="#glyph0-19" x="132.265625" y="271.921875"/>
  <use xlink:href="#glyph0-25" x="137.265625" y="271.921875"/>
  <use xlink:href="#glyph0-18" x="142.265625" y="271.921875"/>
</g>
<path style="fill-rule:nonzero;fill:rgb(80.784314%,100%,100%);fill-opacity:1;stroke-width:0.5;stroke-linecap:round;stroke-linejoin:round;stroke:rgb(0%,0%,0%);stroke-opacity:1;stroke-miterlimit:10;" d="M 172.015625 265.652344 L 179.515625 265.652344 L 179.515625 273.152344 L 172.015625 273.152344 Z M 172.015625 265.652344 "/>
<g style="fill:rgb(0%,0%,0%);fill-opacity:1;">
  <use xlink:href="#glyph0-1" x="183.765625" y="271.921875"/>
  <use xlink:href="#glyph0-2" x="189.765625" y="271.921875"/>
  <use xlink:href="#glyph0-3" x="194.765625" y="271.921875"/>
  <use xlink:href="#glyph0-4" x="198.765625" y="271.921875"/>
  <use xlink:href="#glyph0-5" x="203.765625" y="271.921875"/>
  <use xlink:href="#glyph0-31" x="206.765625" y="271.921875"/>
  <use xlink:href="#glyph0-7" x="211.765625" y="271.921875"/>
  <use xlink:href="#glyph0-5" x="214.765625" y="271.921875"/>
  <use xlink:href="#glyph0-32" x="217.765625" y="271.921875"/>
  <use xlink:href="#glyph0-2" x="222.765625" y="271.921875"/>
  <use xlink:href="#glyph0-28" x="227.765625" y="271.921875"/>
  <use xlink:href="#glyph0-10" x="230.765625" y="271.921875"/>
  <use xlink:href="#glyph0-5" x="233.765625" y="271.921875"/>
  <use xlink:href="#glyph0-10" x="236.765625" y="271.921875"/>
  <use xlink:href="#glyph0-15" x="239.765625" y="271.921875"/>
  <use xlink:href="#glyph0-30" x="241.765625" y="271.921875"/>
  <use xlink:href="#glyph0-5" x="243.765625" y="271.921875"/>
  <use xlink:href="#glyph0-2" x="246.765625" y="271.921875"/>
  <use xlink:href="#glyph0-30" x="251.765625" y="271.921875"/>
  <use xlink:href="#glyph0-30" x="253.765625" y="271.921875"/>
  <use xlink:href="#glyph0-33" x="255.765625" y="271.921875"/>
  <use xlink:href="#glyph0-4" x="263.765625" y="271.921875"/>
  <use xlink:href="#glyph0-14" x="268.765625" y="271.921875"/>
  <use xlink:href="#glyph0-29" x="273.765625" y="271.921875"/>
  <use xlink:href="#glyph0-4" x="278.765625" y="271.921875"/>
  <use xlink:href="#glyph0-10" x="283.765625" y="271.921875"/>
  <use xlink:href="#glyph0-4" x="286.765625" y="271.921875"/>
  <use xlink:href="#glyph0-14" x="291.765625" y="271.921875"/>
  <use xlink:href="#glyph0-5" x="296.765625" y="271.921875"/>
  <use xlink:href="#glyph0-17" x="299.765625" y="271.921875"/>
  <use xlink:href="#glyph0-6" x="302.765625" y="271.921875"/>
  <use xlink:href="#glyph0-6" x="307.765625" y="271.921875"/>
  <use xlink:href="#glyph0-18" x="312.765625" y="271.921875"/>
</g>
<g clip-path="url(#clip3)" clip-rule="nonzero">
<path style=" stroke:none;fill-rule:nonzero;fill:rgb(38.823529%,0%,38.823529%);fill-opacity:1;" d="M 19.515625 275.464844 L 27.015625 275.464844 L 27.015625 282.964844 L 19.515625 282.964844 Z M 19.515625 275.464844 "/>
</g>
<g clip-path="url(#clip4)" clip-rule="nonzero">
<path style="fill:none;stroke-width:0.5;stroke-linecap:round;stroke-linejoin:round;stroke:rgb(0%,0%,0%);stroke-opacity:1;stroke-miterlimit:10;" d="M 19.515625 275.464844 L 27.015625 275.464844 L 27.015625 282.964844 L 19.515625 282.964844 Z M 19.515625 275.464844 "/>
</g>
<g style="fill:rgb(0%,0%,0%);fill-opacity:1;">
  <use xlink:href="#glyph0-1" x="31.265625" y="281.734375"/>
  <use xlink:href="#glyph0-2" x="37.265625" y="281.734375"/>
  <use xlink:href="#glyph0-3" x="42.265625" y="281.734375"/>
  <use xlink:href="#glyph0-4" x="46.265625" y="281.734375"/>
  <use xlink:href="#glyph0-5" x="51.265625" y="281.734375"/>
  <use xlink:href="#glyph0-34" x="54.265625" y="281.734375"/>
  <use xlink:href="#glyph0-7" x="59.265625" y="281.734375"/>
  <use xlink:href="#glyph0-5" x="62.265625" y="281.734375"/>
  <use xlink:href="#glyph0-35" x="65.265625" y="281.734375"/>
  <use xlink:href="#glyph0-12" x="70.265625" y="281.734375"/>
  <use xlink:href="#glyph0-4" x="75.265625" y="281.734375"/>
  <use xlink:href="#glyph0-14" x="80.265625" y="281.734375"/>
  <use xlink:href="#glyph0-10" x="85.265625" y="281.734375"/>
  <use xlink:href="#glyph0-5" x="88.265625" y="281.734375"/>
  <use xlink:href="#glyph0-22" x="91.265625" y="281.734375"/>
  <use xlink:href="#glyph0-2" x="95.265625" y="281.734375"/>
  <use xlink:href="#glyph0-3" x="100.265625" y="281.734375"/>
  <use xlink:href="#glyph0-4" x="104.265625" y="281.734375"/>
  <use xlink:href="#glyph0-5" x="109.265625" y="281.734375"/>
  <use xlink:href="#glyph0-17" x="112.265625" y="281.734375"/>
  <use xlink:href="#glyph0-36" x="115.265625" y="281.734375"/>
  <use xlink:href="#glyph0-18" x="120.265625" y="281.734375"/>
</g>
<path style=" stroke:none;fill-rule:nonzero;fill:rgb(100%,100%,100%);fill-opacity:1;" d="M 68.972656 4.042969 L 266.558594 4.042969 L 266.558594 28.925781 L 68.972656 28.925781 Z M 68.972656 4.042969 "/>
<g style="fill:rgb(0%,0%,0%);fill-opacity:1;">
  <use xlink:href="#glyph1-1" x="73.015625" y="21.081055"/>
  <use xlink:href="#glyph1-2" x="82.015625" y="21.081055"/>
  <use xlink:href="#glyph1-3" x="92.015625" y="21.081055"/>
  <use xlink:href="#glyph1-4" x="99.015625" y="21.081055"/>
  <use xlink:href="#glyph1-5" x="109.015625" y="21.081055"/>
  <use xlink:href="#glyph1-6" x="118.015625" y="21.081055"/>
  <use xlink:href="#glyph1-7" x="123.015625" y="21.081055"/>
  <use xlink:href="#glyph1-8" x="128.015625" y="21.081055"/>
  <use xlink:href="#glyph1-9" x="138.015625" y="21.081055"/>
  <use xlink:href="#glyph1-10" x="148.015625" y="21.081055"/>
  <use xlink:href="#glyph1-11" x="153.015625" y="21.081055"/>
  <use xlink:href="#glyph1-12" x="162.015625" y="21.081055"/>
  <use xlink:href="#glyph1-10" x="171.015625" y="21.081055"/>
  <use xlink:href="#glyph1-13" x="176.015625" y="21.081055"/>
  <use xlink:href="#glyph1-11" x="184.015625" y="21.081055"/>
  <use xlink:href="#glyph1-14" x="193.015625" y="21.081055"/>
  <use xlink:href="#glyph1-5" x="201.015625" y="21.081055"/>
  <use xlink:href="#glyph1-3" x="210.015625" y="21.081055"/>
  <use xlink:href="#glyph1-10" x="217.015625" y="21.081055"/>
  <use xlink:href="#glyph1-15" x="222.015625" y="21.081055"/>
  <use xlink:href="#glyph1-16" x="232.015625" y="21.081055"/>
  <use xlink:href="#glyph1-15" x="242.015625" y="21.081055"/>
  <use xlink:href="#glyph1-17" x="252.015625" y="21.081055"/>
</g>
</g>
</svg>
